<svg id="Anchor_icon" xmlns="http://www.w3.org/2000/svg" width="88.318" height="78.498" viewBox="0 0 88.318 78.498">
  <path id="Anchor_icon-2" data-name="Anchor_icon" d="M53.989,12.265a9.812,9.812,0,1,1-9.812-9.812,9.812,9.812,0,0,1,9.812,9.812ZM44.177,0A12.265,12.265,0,0,0,42.95,24.469V31.89H30.685a1.227,1.227,0,0,0,0,2.453H42.95v41.7H41.724a28.214,28.214,0,0,1-28.21-28.21v-4.17l8.908,9.889a1.227,1.227,0,0,0,1.824-1.64L13.207,39.648a1.3,1.3,0,0,0-.92-.4,1.24,1.24,0,0,0-.9.4L.344,51.913a1.227,1.227,0,1,0,1.824,1.64l8.892-9.889v4.17A30.655,30.655,0,0,0,41.724,78.5H46.63A30.655,30.655,0,0,0,77.293,47.835v-4.17L86.2,53.553a1.227,1.227,0,1,0,1.824-1.64L76.986,39.648a1.209,1.209,0,0,0-.9-.4,1.267,1.267,0,0,0-.9.4L64.138,51.913a1.227,1.227,0,0,0,1.824,1.64l8.877-9.889v4.17a28.214,28.214,0,0,1-28.21,28.21H45.4v-41.7H57.668a1.227,1.227,0,1,0,0-2.453H45.4V24.469A12.265,12.265,0,0,0,44.177,0Z" transform="translate(-0.025)" fill="#1d2a40"/>
</svg>
