<svg id="Child_icon" xmlns="http://www.w3.org/2000/svg" width="49.069" height="78.498" viewBox="0 0 49.069 78.498">
  <path id="Child_icon-2" data-name="Child_icon" d="M56.508,2.453a7.359,7.359,0,1,1-7.359,7.359A7.359,7.359,0,0,1,56.508,2.453Zm0,17.171A9.812,9.812,0,1,0,46.7,9.812,9.812,9.812,0,0,0,56.508,19.624Zm0,7.359a23.577,23.577,0,0,1-19.165-9.843L34.2,12.771a1.23,1.23,0,0,0-1.993,1.441l3.143,4.37a26.047,26.047,0,0,0,42.315,0l3.143-4.37a1.23,1.23,0,0,0-1.993-1.441l-3.143,4.37A23.577,23.577,0,0,1,56.508,26.984ZM46.7,35.569a1.227,1.227,0,1,0-2.453,0V73.592a4.906,4.906,0,1,0,9.812,0V61.327a2.453,2.453,0,0,1,4.906,0V73.592a4.906,4.906,0,1,0,9.812,0V35.569a1.227,1.227,0,1,0-2.453,0V73.592a2.453,2.453,0,0,1-4.906,0V61.327a4.906,4.906,0,0,0-9.812,0V73.592a2.453,2.453,0,0,1-4.906,0Z" transform="translate(-31.973)" fill="#1d2a40"/>
</svg>
