<svg id="Hand_icon" xmlns="http://www.w3.org/2000/svg" width="48.264" height="55.152" viewBox="0 0 48.264 55.152">
  <path id="Hand_icon-2" data-name="Hand_icon" d="M13.74,5.6a3.878,3.878,0,1,1,7.756,0V20.7a.867.867,0,0,0,1.336.722,4.7,4.7,0,0,1,2.553-.743,4.747,4.747,0,0,1,4.46,3.124.857.857,0,0,0,1.325.388A4.683,4.683,0,0,1,34,23.257a4.731,4.731,0,0,1,4.535,3.372.873.873,0,0,0,.474.539.887.887,0,0,0,.722-.011A4.743,4.743,0,0,1,46.5,31.443v12.5a9.479,9.479,0,0,1-9.479,9.479H22.26A13.764,13.764,0,0,1,11.381,48.1L2.4,36.581a3.446,3.446,0,1,1,5.44-4.233l4.352,5.6a.859.859,0,0,0,1.54-.528ZM17.618,0a5.6,5.6,0,0,0-5.6,5.6v29.31L9.2,31.292A5.174,5.174,0,0,0,1.04,37.648L10,49.163A15.5,15.5,0,0,0,22.25,55.152H37.007a11.208,11.208,0,0,0,11.2-11.2v-12.5a6.475,6.475,0,0,0-8.359-6.183,6.474,6.474,0,0,0-8.833-3.005,6.482,6.482,0,0,0-7.8-2.941V5.6A5.6,5.6,0,0,0,17.618,0Zm6.463,33.608a.862.862,0,0,0-1.724,0V45.673a.862.862,0,0,0,1.724,0Zm6.894,0a.862.862,0,0,0-1.724,0V45.673a.862.862,0,1,0,1.724,0Zm6.894,0a.862.862,0,0,0-1.724,0V45.673a.862.862,0,0,0,1.724,0Z" transform="translate(0.054)" fill="#1d2a40"/>
</svg>
