<svg id="Mouse_icon" xmlns="http://www.w3.org/2000/svg" width="41.364" height="55.152" viewBox="0 0 41.364 55.152">
  <path id="Mouse_icon-2" data-name="Mouse_icon" d="M39.641,37.917V17.235A15.516,15.516,0,0,0,24.129,1.724H17.235A15.516,15.516,0,0,0,1.724,17.235V37.917A15.516,15.516,0,0,0,17.235,53.429h6.894A15.516,15.516,0,0,0,39.641,37.917ZM0,17.235A17.23,17.23,0,0,1,17.235,0h6.894A17.23,17.23,0,0,1,41.364,17.235V37.917A17.23,17.23,0,0,1,24.129,55.152H17.235A17.23,17.23,0,0,1,0,37.917Zm22.406-3.447a1.724,1.724,0,0,0-3.447,0v3.447a1.724,1.724,0,0,0,3.447,0Zm-5.171,0a3.447,3.447,0,0,1,6.894,0v3.447a3.447,3.447,0,0,1-6.894,0Z" fill="#1d2a40"/>
</svg>
