<svg id="Logo_apartmany_white" xmlns="http://www.w3.org/2000/svg" xmlns:xlink="http://www.w3.org/1999/xlink" width="280" height="65.641" viewBox="0 0 280 65.641">
  <defs>
    <clipPath id="clip-path">
      <rect id="Rectangle_324" data-name="Rectangle 324" width="280" height="65.641" fill="#FFFFFF"/>
    </clipPath>
  </defs>
  <g id="Group_819" data-name="Group 819" clip-path="url(#clip-path)">
    <path id="Path_1480" data-name="Path 1480" d="M53.035,33.675H51.549a.649.649,0,0,1-.433-.142.96.96,0,0,1-.264-.37l-3.143-7.8H34.627l-3.125,7.8a.809.809,0,0,1-.263.36.693.693,0,0,1-.451.152H29.32l10.9-26.843h1.92Zm-17.824-9.75H47.144L41.7,10.361q-.132-.322-.263-.73c-.088-.272-.177-.56-.264-.862q-.132.454-.263.862t-.264.749Z" transform="translate(-0.647 -0.098)" fill="#FFFFFF"/>
    <path id="Path_1481" data-name="Path 1481" d="M60.377,22.862V33.675h-1.92V6.832h6.87q4.685,0,7.068,2.069a7.391,7.391,0,0,1,2.38,5.9,7.98,7.98,0,0,1-.649,3.244A7.2,7.2,0,0,1,72.253,20.6a8.739,8.739,0,0,1-2.973,1.67,12.2,12.2,0,0,1-3.953.6Zm0-1.555h4.95a9.454,9.454,0,0,0,3.162-.493,6.963,6.963,0,0,0,2.362-1.366,5.945,5.945,0,0,0,1.487-2.058,6.4,6.4,0,0,0,.517-2.589,6.017,6.017,0,0,0-1.891-4.762A8.3,8.3,0,0,0,65.327,8.37h-4.95Z" transform="translate(-1.289 -0.098)" fill="#FFFFFF"/>
    <path id="Path_1482" data-name="Path 1482" d="M98.839,33.675H97.353a.649.649,0,0,1-.433-.142.959.959,0,0,1-.264-.37l-3.143-7.8H80.431l-3.125,7.8a.809.809,0,0,1-.263.36.693.693,0,0,1-.451.152H75.124l10.9-26.843h1.92Zm-17.824-9.75H92.948L87.509,10.361q-.132-.322-.263-.73c-.088-.272-.177-.56-.264-.862q-.132.454-.263.862t-.264.749Z" transform="translate(-1.657 -0.098)" fill="#FFFFFF"/>
    <path id="Path_1483" data-name="Path 1483" d="M106.182,21.534V33.675h-1.92V6.832h6.795q4.611,0,6.889,1.793a6.3,6.3,0,0,1,2.277,5.265,7.248,7.248,0,0,1-.527,2.807,6.561,6.561,0,0,1-1.516,2.229A8.06,8.06,0,0,1,115.8,20.5a10.482,10.482,0,0,1-3.142.805,3.08,3.08,0,0,1,.809.759l9.166,11.61h-1.675a1.106,1.106,0,0,1-.517-.113,1.38,1.38,0,0,1-.424-.38l-8.526-10.889a1.89,1.89,0,0,0-.687-.587,2.841,2.841,0,0,0-1.139-.172Zm0-1.441h4.63a10.912,10.912,0,0,0,3.171-.427,6.822,6.822,0,0,0,2.372-1.224,5.261,5.261,0,0,0,1.478-1.915A6.031,6.031,0,0,0,118.341,14a4.948,4.948,0,0,0-1.864-4.249,8.988,8.988,0,0,0-5.42-1.385h-4.875Z" transform="translate(-2.299 -0.098)" fill="#FFFFFF"/>
    <path id="Path_1484" data-name="Path 1484" d="M144.173,6.832v1.65h-9.354V33.675H132.9V8.482h-9.411V6.832Z" transform="translate(-2.723 -0.098)" fill="#FFFFFF"/>
    <path id="Path_1485" data-name="Path 1485" d="M162.641,27q.113-.3.236-.6a4.861,4.861,0,0,1,.274-.56L173.615,7.193a.682.682,0,0,1,.3-.3,1.2,1.2,0,0,1,.415-.057h1.336V33.675h-1.694V10.8a9.873,9.873,0,0,1,.058-1.044L163.545,28.516a.82.82,0,0,1-.753.493h-.3a.846.846,0,0,1-.753-.493L150.973,9.735a10.569,10.569,0,0,1,.057,1.063V33.675h-1.675V6.833h1.317a1.281,1.281,0,0,1,.423.057.668.668,0,0,1,.311.3L162.152,25.86A7.8,7.8,0,0,1,162.641,27" transform="translate(-3.294 -0.098)" fill="#FFFFFF"/>
    <path id="Path_1486" data-name="Path 1486" d="M204.3,33.577h-1.487a.643.643,0,0,1-.432-.143.943.943,0,0,1-.263-.37l-3.144-7.8H185.9l-3.126,7.8a.8.8,0,0,1-.262.361.7.7,0,0,1-.452.152h-1.469l10.9-26.843h1.921Zm-17.824-9.75h11.934l-5.44-13.564q-.132-.322-.263-.73t-.264-.863q-.132.455-.263.863t-.264.749ZM197.867,0l-5.5,4.1a1.222,1.222,0,0,1-.35.18,1.369,1.369,0,0,1-.385.047h-1.318L194.591.417a1.583,1.583,0,0,1,.491-.332A2.046,2.046,0,0,1,195.759,0Z" transform="translate(-3.982 0)" fill="#FFFFFF"/>
    <path id="Path_1487" data-name="Path 1487" d="M210.505,6.9a.9.9,0,0,1,.32.294l17.24,23.258a11,11,0,0,1-.057-1.1V6.832H229.7V33.675h-.922a.806.806,0,0,1-.7-.379L210.768,10a10.815,10.815,0,0,1,.057,1.081V33.675H209.15V6.832h.941a1.054,1.054,0,0,1,.415.066" transform="translate(-4.612 -0.098)" fill="#FFFFFF"/>
    <path id="Path_1488" data-name="Path 1488" d="M246.471,22.6V33.675h-1.938V22.6L234.689,6.832h1.675a.679.679,0,0,1,.423.123,1.46,1.46,0,0,1,.31.351l7.623,12.331a8.816,8.816,0,0,1,.452.844c.125.272.238.548.339.825.1-.277.212-.553.337-.825a8.788,8.788,0,0,1,.452-.844l7.6-12.331a1.063,1.063,0,0,1,.283-.341.676.676,0,0,1,.432-.133h1.694Z" transform="translate(-5.175 -0.098)" fill="#FFFFFF"/>
    <path id="Path_1489" data-name="Path 1489" d="M73.955,62.017a.606.606,0,0,1,.456.205l1.272,1.392a7,7,0,0,1-2.6,2.019,8.874,8.874,0,0,1-3.7.7,8.684,8.684,0,0,1-3.474-.665,7.649,7.649,0,0,1-2.634-1.85A8.115,8.115,0,0,1,61.6,60.99a10.694,10.694,0,0,1-.582-3.592,9.748,9.748,0,0,1,.647-3.61,8.121,8.121,0,0,1,4.637-4.668,9.617,9.617,0,0,1,3.617-.658,8.484,8.484,0,0,1,3.377.622,7.911,7.911,0,0,1,2.478,1.651L74.7,52.246a.973.973,0,0,1-.245.254.689.689,0,0,1-.414.109.941.941,0,0,1-.564-.218,6.906,6.906,0,0,0-.731-.472,5.925,5.925,0,0,0-1.122-.471,6.426,6.426,0,0,0-3.971.212,4.984,4.984,0,0,0-1.763,1.227,5.645,5.645,0,0,0-1.152,1.941,7.508,7.508,0,0,0-.415,2.57,7.717,7.717,0,0,0,.415,2.624,5.773,5.773,0,0,0,1.122,1.935,4.8,4.8,0,0,0,1.667,1.2,5.122,5.122,0,0,0,2.063.417,8.933,8.933,0,0,0,1.194-.073,5.058,5.058,0,0,0,.984-.23,4.334,4.334,0,0,0,.852-.405,5.306,5.306,0,0,0,.8-.61,1.089,1.089,0,0,1,.252-.175.627.627,0,0,1,.288-.067" transform="translate(-1.346 -0.694)" fill="#FFFFFF"/>
    <path id="Path_1490" data-name="Path 1490" d="M93.141,66.144H89.889V58.5H81.755v7.642H78.5V48.658h3.251V56.18h8.135V48.658h3.252Z" transform="translate(-1.731 -0.697)" fill="#FFFFFF"/>
    <path id="Path_1491" data-name="Path 1491" d="M113.672,57.4a9.775,9.775,0,0,1-.636,3.561,8.462,8.462,0,0,1-1.788,2.836,8.1,8.1,0,0,1-2.771,1.868,9.939,9.939,0,0,1-7.181,0A8.15,8.15,0,0,1,98.513,63.8,8.415,8.415,0,0,1,96.72,60.96a10.294,10.294,0,0,1,0-7.123A8.415,8.415,0,0,1,98.513,51a8.139,8.139,0,0,1,2.783-1.869,9.35,9.35,0,0,1,3.594-.67,9.212,9.212,0,0,1,3.587.677,8.2,8.2,0,0,1,2.771,1.868,8.4,8.4,0,0,1,1.788,2.83,9.767,9.767,0,0,1,.636,3.561m-3.311,0a8.194,8.194,0,0,0-.377-2.583,5.46,5.46,0,0,0-1.087-1.94,4.678,4.678,0,0,0-1.721-1.222,6.4,6.4,0,0,0-4.577,0,4.717,4.717,0,0,0-1.734,1.222,5.481,5.481,0,0,0-1.1,1.94,8.887,8.887,0,0,0,0,5.164,5.433,5.433,0,0,0,1.1,1.935A4.735,4.735,0,0,0,102.6,63.13a6.4,6.4,0,0,0,4.577,0,4.7,4.7,0,0,0,1.721-1.215,5.412,5.412,0,0,0,1.087-1.935,8.192,8.192,0,0,0,.377-2.582" transform="translate(-2.119 -0.694)" fill="#FFFFFF"/>
    <path id="Path_1492" data-name="Path 1492" d="M120.007,59.312v6.832H116.78V48.659h5.291a10.989,10.989,0,0,1,3.041.369,5.756,5.756,0,0,1,2.075,1.034,3.982,3.982,0,0,1,1.188,1.59,5.621,5.621,0,0,1,.12,3.706,4.844,4.844,0,0,1-.744,1.427,5.025,5.025,0,0,1-1.2,1.125,6.26,6.26,0,0,1-1.625.774,3.206,3.206,0,0,1,1.055,1l4.344,6.457h-2.9a1.4,1.4,0,0,1-.714-.17,1.44,1.44,0,0,1-.5-.483l-3.648-5.6a1.279,1.279,0,0,0-.45-.448,1.566,1.566,0,0,0-.726-.133Zm0-2.334h2.016a4.971,4.971,0,0,0,1.59-.23,3.075,3.075,0,0,0,1.116-.635,2.549,2.549,0,0,0,.653-.962,3.328,3.328,0,0,0,.216-1.22,2.5,2.5,0,0,0-.869-2.044,4.143,4.143,0,0,0-2.658-.714h-2.063Z" transform="translate(-2.575 -0.697)" fill="#FFFFFF"/>
    <path id="Path_1493" data-name="Path 1493" d="M131,48.658h2.6a1.087,1.087,0,0,1,.684.205,1.26,1.26,0,0,1,.4.533l4.079,10.665q.2.519.39,1.142t.354,1.312a15.113,15.113,0,0,1,.684-2.454L144.257,49.4a1.261,1.261,0,0,1,.383-.509,1.034,1.034,0,0,1,.684-.23h2.6l-7.007,17.486h-2.915Z" transform="translate(-2.889 -0.697)" fill="#FFFFFF"/>
    <path id="Path_1494" data-name="Path 1494" d="M163.3,66.144h-2.495a1.077,1.077,0,0,1-.689-.212,1.2,1.2,0,0,1-.391-.525L158.43,61.84h-7.187l-1.3,3.567a1.134,1.134,0,0,1-.378.508,1.052,1.052,0,0,1-.689.23h-2.507l6.815-17.486h3.3Zm-11.23-6.6H157.6l-2.111-5.817q-.145-.387-.318-.913t-.342-1.143q-.169.617-.331,1.149t-.318.931Z" transform="translate(-3.228 -0.697)" fill="#FFFFFF"/>
    <path id="Path_1495" data-name="Path 1495" d="M175.9,48.658V51.33H170.68V66.144h-3.227V51.33H162.21V48.658Z" transform="translate(-3.577 -0.697)" fill="#FFFFFF"/>
    <path id="Path_1496" data-name="Path 1496" d="M187.574,51.836a.893.893,0,0,1-.305.375.763.763,0,0,1-.414.109,1.056,1.056,0,0,1-.541-.187q-.3-.188-.708-.418a5.806,5.806,0,0,0-.953-.417,3.975,3.975,0,0,0-1.29-.187,3.748,3.748,0,0,0-1.17.164,2.433,2.433,0,0,0-.839.453,1.8,1.8,0,0,0-.51.695,2.288,2.288,0,0,0-.168.889,1.555,1.555,0,0,0,.342,1.028,2.871,2.871,0,0,0,.906.7,8.236,8.236,0,0,0,1.284.519q.719.231,1.47.49a14.085,14.085,0,0,1,1.469.605,5.122,5.122,0,0,1,1.285.87,3.959,3.959,0,0,1,.9,1.288,4.487,4.487,0,0,1,.342,1.85,6.071,6.071,0,0,1-.4,2.219,5.128,5.128,0,0,1-1.175,1.8,5.554,5.554,0,0,1-1.889,1.209,6.921,6.921,0,0,1-2.555.441,8.209,8.209,0,0,1-1.632-.163,8.461,8.461,0,0,1-1.541-.466,7.97,7.97,0,0,1-1.381-.725,6.725,6.725,0,0,1-1.144-.943l.935-1.559a1.175,1.175,0,0,1,.318-.284.771.771,0,0,1,.415-.115,1.14,1.14,0,0,1,.647.248q.348.248.822.55a6.313,6.313,0,0,0,1.115.55,4.277,4.277,0,0,0,1.541.247,3.146,3.146,0,0,0,2.136-.658,2.374,2.374,0,0,0,.756-1.893A1.772,1.772,0,0,0,185.3,60a2.759,2.759,0,0,0-.907-.731,6.664,6.664,0,0,0-1.283-.5q-.72-.206-1.465-.448a12.727,12.727,0,0,1-1.463-.581,4.73,4.73,0,0,1-1.283-.883,4.009,4.009,0,0,1-.907-1.36,5.223,5.223,0,0,1-.342-2.014,4.834,4.834,0,0,1,1.483-3.471,5.455,5.455,0,0,1,1.781-1.125,6.447,6.447,0,0,1,2.412-.423,8.045,8.045,0,0,1,2.832.484,6.389,6.389,0,0,1,2.208,1.354Z" transform="translate(-3.902 -0.694)" fill="#FFFFFF"/>
    <path id="Path_1497" data-name="Path 1497" d="M194.807,55.986h.754a1.953,1.953,0,0,0,.757-.127,1.27,1.27,0,0,0,.515-.405l4.787-6.106a1.748,1.748,0,0,1,.63-.538,2.014,2.014,0,0,1,.835-.152h2.783l-5.843,7.267a5.451,5.451,0,0,1-.529.569,2.4,2.4,0,0,1-.539.376,2.4,2.4,0,0,1,.715.41,3.952,3.952,0,0,1,.616.678l6.023,8.186h-2.856a1.766,1.766,0,0,1-.858-.163,1.356,1.356,0,0,1-.474-.478l-4.906-6.457a1.454,1.454,0,0,0-.541-.453,2.073,2.073,0,0,0-.852-.14h-1.018v7.691h-3.228v-17.5h3.228Z" transform="translate(-4.225 -0.697)" fill="#FFFFFF"/>
    <path id="Path_1498" data-name="Path 1498" d="M224.846,57.4a9.775,9.775,0,0,1-.636,3.561,8.447,8.447,0,0,1-1.788,2.836,8.1,8.1,0,0,1-2.771,1.868,9.939,9.939,0,0,1-7.181,0,8.146,8.146,0,0,1-2.782-1.868,8.37,8.37,0,0,1-1.794-2.836,10.279,10.279,0,0,1,0-7.123A8.37,8.37,0,0,1,209.688,51a8.135,8.135,0,0,1,2.782-1.869,9.35,9.35,0,0,1,3.594-.67,9.212,9.212,0,0,1,3.587.677,8.2,8.2,0,0,1,2.771,1.868,8.382,8.382,0,0,1,1.788,2.83,9.767,9.767,0,0,1,.636,3.561m-3.311,0a8.194,8.194,0,0,0-.378-2.583,5.456,5.456,0,0,0-1.085-1.94,4.69,4.69,0,0,0-1.722-1.222,6.4,6.4,0,0,0-4.577,0,4.717,4.717,0,0,0-1.734,1.222,5.48,5.48,0,0,0-1.1,1.94,8.866,8.866,0,0,0,0,5.164,5.432,5.432,0,0,0,1.1,1.935,4.735,4.735,0,0,0,1.734,1.215,6.4,6.4,0,0,0,4.577,0,4.708,4.708,0,0,0,1.722-1.215,5.408,5.408,0,0,0,1.085-1.935,8.191,8.191,0,0,0,.378-2.582" transform="translate(-4.571 -0.694)" fill="#FFFFFF"/>
    <rect id="Rectangle_322" data-name="Rectangle 322" width="48.549" height="1.897" transform="translate(0 55.284)" fill="#FFFFFF"/>
    <rect id="Rectangle_323" data-name="Rectangle 323" width="48.549" height="1.897" transform="translate(231.451 55.284)" fill="#FFFFFF"/>
  </g>
</svg>
