<svg id="Umbrella_icon" xmlns="http://www.w3.org/2000/svg" width="68.656" height="60.457" viewBox="0 0 68.656 60.457">
  <path id="Umbrella_icon-2" data-name="Umbrella_icon" d="M55.139,12.631A28.7,28.7,0,0,1,66.212,37.662a1.537,1.537,0,0,1-2.169,1.156l-10.62-3.862.489-1.359a41.138,41.138,0,0,0,2.408-16.5,11.557,11.557,0,0,0-1.18-4.458Zm-6.353-3.7a9.752,9.752,0,0,1,5.626,8.26,39.046,39.046,0,0,1-2.3,15.734l-.5,1.359L28.058,25.707l.489-1.359A39.3,39.3,0,0,1,36.9,10.82,9.742,9.742,0,0,1,47.034,8.257c.143.048.286.107.429.155.441.167.882.334,1.311.513ZM39.549,6.755A11.669,11.669,0,0,0,35.532,9.52,40.963,40.963,0,0,0,26.771,23.7l-.489,1.359L15.257,21.046a1.527,1.527,0,0,1-.918-2.277A28.674,28.674,0,0,1,39.549,6.743Zm8.105-.286a30.527,30.527,0,0,0-34.876,11.2A3.435,3.435,0,0,0,14.6,22.846l11.014,4h0l1.788.656,23.565,8.57,1.788.656h0l10.62,3.862a3.43,3.43,0,0,0,4.72-2.789A30.536,30.536,0,0,0,49.549,7.184c-.286-.131-.584-.25-.882-.358l-.7-.25-.322-.107ZM.954,63.336a.954.954,0,0,0,0,1.907H67.7a.954.954,0,0,0,0-1.907H28.5l10.084-27.7L36.8,34.98,26.688,62.752l-.215.584Z" transform="translate(0 -4.787)" fill="#1d2a40"/>
</svg>
